<svg id="camera" xmlns="http://www.w3.org/2000/svg" width="18.243" height="16.585" viewBox="0 0 18.243 16.585">
  <path id="Vector_Stroke_" data-name="Vector (Stroke)" d="M5.892.458A.829.829,0,0,1,6.634,0h4.975a.829.829,0,0,1,.742.458l1.015,2.029h2.8a2.073,2.073,0,0,1,2.073,2.073v9.951a2.073,2.073,0,0,1-2.073,2.073H2.073A2.073,2.073,0,0,1,0,14.512V4.561A2.073,2.073,0,0,1,2.073,2.488h2.8Zm.84,2.029h4.78L11.1,1.658H7.146ZM2.073,4.146a.415.415,0,0,0-.415.415v9.951a.415.415,0,0,0,.415.415h14.1a.415.415,0,0,0,.415-.415V4.561a.415.415,0,0,0-.415-.415Zm2.9,5.39a4.146,4.146,0,1,1,4.146,4.146A4.146,4.146,0,0,1,4.975,9.536ZM9.122,7.049a2.488,2.488,0,1,0,2.488,2.488A2.488,2.488,0,0,0,9.122,7.049Z" transform="translate(0 0)" fill="#1a98c9" fill-rule="evenodd"/>
</svg>
