<svg id="game-handle" xmlns="http://www.w3.org/2000/svg" width="18.243" height="17.414" viewBox="0 0 18.243 17.414">
  <g id="Group">
    <g id="Group-2" data-name="Group">
      <path id="Union" d="M5.654,8.708a.829.829,0,0,1,.829.829v.829h.829a.829.829,0,1,1,0,1.658H6.484v.829a.829.829,0,1,1-1.658,0v-.829H4a.829.829,0,1,1,0-1.658h.829V9.538A.829.829,0,0,1,5.654,8.708Z" transform="translate(0.15 0.413)" fill="#1a98c9"/>
      <path id="Union-2" data-name="Union" d="M14.475,11.2a2.488,2.488,0,1,1-2.488-2.488A2.488,2.488,0,0,1,14.475,11.2Zm-2.488.829a.829.829,0,1,0-.829-.829A.829.829,0,0,0,11.988,12.025Z" transform="translate(0.451 0.413)" fill="#1a98c9" fill-rule="evenodd"/>
      <path id="Union-3" data-name="Union" d="M12.439,0a.829.829,0,0,1,.829.829V3.2a.829.829,0,0,1-.829.829H9.951V5.8h2.488a5.8,5.8,0,1,1,0,11.609H5.8A5.8,5.8,0,1,1,5.8,5.8H8.292V3.2a.829.829,0,0,1,.829-.829h2.488V.829A.829.829,0,0,1,12.439,0ZM5.8,7.463a4.146,4.146,0,0,0,0,8.292h6.634a4.146,4.146,0,1,0,0-8.292Z" transform="translate(0 0)" fill="#1a98c9" fill-rule="evenodd"/>
    </g>
  </g>
</svg>
