<svg id="goblet-full" xmlns="http://www.w3.org/2000/svg" width="11.609" height="18.243" viewBox="0 0 11.609 18.243">
  <path id="Vector_Stroke_" data-name="Vector (Stroke)" d="M1.817.342A.829.829,0,0,1,2.488,0H9.122a.829.829,0,0,1,.671.342h0l0,0,0,0,.009.013.031.044c.026.037.061.09.1.157.087.134.206.326.341.567a11.312,11.312,0,0,1,.87,1.976,8.719,8.719,0,0,1,.456,2.7,5.721,5.721,0,0,1-.485,2.3,5.86,5.86,0,0,1-4.491,3.442v5.035H9.951a.829.829,0,0,1,0,1.658H1.658a.829.829,0,1,1,0-1.658H4.975V11.551A5.8,5.8,0,0,1,0,5.8,8.882,8.882,0,0,1,.55,2.83a11.411,11.411,0,0,1,.822-1.782C1.5.832,1.6.66,1.682.54,1.721.48,1.753.433,1.776.4L1.8.36,1.812.348l0,0h0ZM2.111,3.39a9.752,9.752,0,0,1,.7-1.52c.045-.078.086-.149.124-.211M2.111,3.39a8.082,8.082,0,0,0-.343,1.255c.2-.046.413-.09.642-.126a5.712,5.712,0,0,1,3.821.574,4.081,4.081,0,0,0,2.709.358,7.518,7.518,0,0,0,.982-.225,7.477,7.477,0,0,0-.345-1.6,9.653,9.653,0,0,0-.742-1.683c-.059-.106-.114-.2-.163-.28H2.937M2.076,7.621A4.112,4.112,0,0,1,1.7,6.379m.378,1.241a4.157,4.157,0,0,0,7.7-.642c-.18.041-.374.079-.578.111a5.712,5.712,0,0,1-3.821-.574,4.081,4.081,0,0,0-2.709-.358,7.516,7.516,0,0,0-.971.222" transform="translate(0)" fill="#1a98c9" fill-rule="evenodd"/>
</svg>
