<svg id="music" xmlns="http://www.w3.org/2000/svg" width="20" height="20" viewBox="0 0 20 20">
  <rect id="music_Frame_Background_" data-name="music [Frame Background]" width="20" height="20" fill="none"/>
  <path id="Vector_Stroke_" data-name="Vector (Stroke)" d="M15.854.178a.829.829,0,0,1,.316.651V4.181q0,.018,0,.035v9.217a2.322,2.322,0,0,1-2.322,2.322H12.231a2.28,2.28,0,0,1,0-4.561h2.28V5.247L5.8,7.308v7.784a2.322,2.322,0,0,1-2.322,2.322H2.28a2.28,2.28,0,0,1,0-4.561H4.146V6.669q0-.018,0-.035V3.317a.829.829,0,0,1,.636-.806L15.147.023a.829.829,0,0,1,.707.155ZM5.8,5.6l8.707-2.061V1.881L5.8,3.971ZM4.146,14.512H2.28a.622.622,0,0,0,0,1.244h1.2a.663.663,0,0,0,.663-.663Zm10.365-1.658h-2.28a.622.622,0,0,0,0,1.244h1.617a.663.663,0,0,0,.663-.663Z" transform="translate(1.658 0.829)" fill="#1a98c9" fill-rule="evenodd"/>
</svg>
