<svg id="noodles" xmlns="http://www.w3.org/2000/svg" width="18.244" height="18.243" viewBox="0 0 18.244 18.243">
  <path id="Vector_Stroke_" data-name="Vector (Stroke)" d="M18.223.647a.829.829,0,0,1-.627.991l-4.328.974v5.68h4.146a.829.829,0,0,1,.829.829,9.342,9.342,0,0,1-2.292,6.425,8.949,8.949,0,0,1-6.829,2.7,8.949,8.949,0,0,1-6.829-2.7A9.342,9.342,0,0,1,0,9.122a.829.829,0,0,1,.829-.829h.829V5.224l-.647.146A.829.829,0,0,1,.647,3.752l1.011-.228V3.317A.829.829,0,0,1,3.3,3.155l1.674-.377v-.29A.829.829,0,0,1,6.63,2.406l1.662-.374V1.659a.829.829,0,0,1,1.658,0l1.658-.373V.829a.829.829,0,0,1,1.658,0V.912L17.232.02a.829.829,0,0,1,.991.627ZM11.609,2.985l-1.658.373V8.293h1.658ZM1.692,9.951a7.391,7.391,0,0,0,1.82,4.473,7.3,7.3,0,0,0,5.609,2.161,7.3,7.3,0,0,0,5.609-2.161,7.391,7.391,0,0,0,1.82-4.473ZM3.317,8.293H4.976V4.478l-1.658.373ZM6.634,4.1V8.293H8.293V3.732Z" transform="translate(0 0)" fill="#1a98c9" fill-rule="evenodd"/>
</svg>
