<svg id="outdoor" xmlns="http://www.w3.org/2000/svg" width="18.243" height="17.414" viewBox="0 0 18.243 17.414">
  <path id="Vector_Stroke_" data-name="Vector (Stroke)" d="M14.512,1.658A1.244,1.244,0,1,0,15.756,2.9a1.244,1.244,0,0,0-1.244-1.244ZM11.609,2.9a2.9,2.9,0,1,1,2.9,2.9A2.9,2.9,0,0,1,11.609,2.9ZM6.641,2.488A.829.829,0,0,1,7.4,3L10.694,10.9l.958-2.874a.829.829,0,0,1,1.5-.164l4.975,8.292a.829.829,0,0,1-.711,1.256H.829a.829.829,0,0,1-.76-1.162l5.8-13.268a.829.829,0,0,1,.767-.5ZM2.1,15.756H15.949l-3.294-5.49L11.567,13.53a.829.829,0,0,1-1.552.057l-3.4-8.158Z" transform="translate(0)" fill="#1a98c9" fill-rule="evenodd"/>
</svg>
