<svg id="parachute" xmlns="http://www.w3.org/2000/svg" width="18.243" height="18.243" viewBox="0 0 18.243 18.243">
  <path id="Vector_Stroke_" data-name="Vector (Stroke)" d="M0,9.122a9.122,9.122,0,1,1,18.243,0A.829.829,0,0,1,18,9.708L9.708,18a.829.829,0,0,1-1.173,0L.243,9.708A.829.829,0,0,1,0,9.122ZM1.878,7.317l.079-.046a3.148,3.148,0,0,1,1.511-.486,3.148,3.148,0,0,1,1.511.486,9.324,9.324,0,0,1,1.1.754,4.752,4.752,0,0,1,3.045-1.24,4.752,4.752,0,0,1,3.045,1.24,9.322,9.322,0,0,1,1.1-.754,3.148,3.148,0,0,1,1.511-.486,3.148,3.148,0,0,1,1.511.486l.079.046a7.465,7.465,0,0,0-14.487,0Zm14.3,1.871a7.006,7.006,0,0,0-.712-.477,1.649,1.649,0,0,0-.688-.268,1.649,1.649,0,0,0-.688.268,8.994,8.994,0,0,0-1.247.9l-1.663,4.572Zm-7.054,5.8L11.17,9.354a3.18,3.18,0,0,0-2.049-.911,3.18,3.18,0,0,0-2.049.911ZM5.4,9.612a9,9,0,0,0-1.247-.9,1.649,1.649,0,0,0-.688-.268,1.649,1.649,0,0,0-.688.268,7.006,7.006,0,0,0-.712.477l5,5Z" transform="translate(0)" fill="#1a98c9" fill-rule="evenodd"/>
</svg>
