<svg id="platte" xmlns="http://www.w3.org/2000/svg" width="18.243" height="18.243" viewBox="0 0 18.243 18.243">
  <path id="Vector_Stroke_" data-name="Vector (Stroke)" d="M0,9.122a9.122,9.122,0,1,1,18.243,0A2.09,2.09,0,0,1,17.1,10.976a6.834,6.834,0,0,1-1.932.649c-.2.044-.4.085-.594.124-.459.094-.884.18-1.285.3a2.309,2.309,0,0,0-1.065.528l-.621-.55.621.55a2.4,2.4,0,0,0-.488,1.171c-.071.372-.1.737-.14,1.134-.017.183-.034.373-.055.573a4.314,4.314,0,0,1-.5,1.8,2.017,2.017,0,0,1-.784.737,2.425,2.425,0,0,1-1.139.256A9.122,9.122,0,0,1,0,9.122ZM9.122,1.658a7.463,7.463,0,1,0,0,14.926.794.794,0,0,0,.37-.067.363.363,0,0,0,.143-.142,2.839,2.839,0,0,0,.264-1.1c.015-.137.029-.291.044-.454.039-.43.084-.929.171-1.384a4.021,4.021,0,0,1,.876-1.961,3.852,3.852,0,0,1,1.843-1.021c.47-.137,1-.245,1.485-.344.176-.036.347-.071.506-.105a5.352,5.352,0,0,0,1.451-.463c.27-.157.311-.273.311-.42A7.463,7.463,0,0,0,9.122,1.658ZM8.707,4.975A2.073,2.073,0,1,1,10.78,7.049,2.073,2.073,0,0,1,8.707,4.975Zm2.073-.415a.415.415,0,1,0,.415.415A.415.415,0,0,0,10.78,4.561ZM3.732,6.634A2.073,2.073,0,1,1,5.8,8.707,2.073,2.073,0,0,1,3.732,6.634ZM5.8,6.219a.415.415,0,1,0,.415.415A.415.415,0,0,0,5.8,6.219Zm-1.658,5.8A2.073,2.073,0,1,1,6.219,14.1a2.073,2.073,0,0,1-2.073-2.073Zm2.073-.415a.415.415,0,1,0,.415.415A.415.415,0,0,0,6.219,11.609Z" fill="#1a98c9" fill-rule="evenodd"/>
</svg>
