<svg id="ripple" xmlns="http://www.w3.org/2000/svg" width="18.243" height="14.097" viewBox="0 0 18.243 14.097">
  <path id="Vector" d="M4.976,9.5a7.541,7.541,0,0,1,3.231.749l.474.207.518.237.762.356.439.2.2.089.381.158a5.714,5.714,0,0,0,2.284.495,7.025,7.025,0,0,0,2.543-.563c.315-.126.607-.261.868-.4l.223-.119.086-.049a.829.829,0,1,1,.853,1.422l-.225.128-.279.146c-.254.127-.561.267-.91.407a8.6,8.6,0,0,1-3.158.681,7.541,7.541,0,0,1-3.231-.749l-.474-.207-.518-.237L8.283,12.1l-.439-.2-.2-.089-.381-.158a5.714,5.714,0,0,0-2.284-.495,7.025,7.025,0,0,0-2.543.563c-.315.126-.607.261-.868.4l-.223.119-.086.049A.829.829,0,1,1,.4,10.862l.225-.128.279-.146c.254-.127.561-.267.91-.407A8.6,8.6,0,0,1,4.976,9.5Z" transform="translate(0 0.451)" fill="#1a98c9"/>
  <path id="Vector-2" data-name="Vector" d="M4.976,4.75A7.541,7.541,0,0,1,8.206,5.5l.474.207.518.237L9.96,6.3l.439.2.2.089.381.158a5.714,5.714,0,0,0,2.284.495,7.025,7.025,0,0,0,2.543-.563c.315-.126.607-.261.868-.4l.223-.119.086-.049a.829.829,0,1,1,.853,1.422l-.225.128-.279.146c-.254.127-.561.267-.91.407a8.6,8.6,0,0,1-3.158.681,7.541,7.541,0,0,1-3.231-.749L9.563,7.94,9.045,7.7l-.762-.356-.439-.2-.2-.089L7.259,6.9a5.714,5.714,0,0,0-2.284-.495,7.025,7.025,0,0,0-2.543.563c-.315.126-.607.261-.868.4l-.223.119-.086.049A.829.829,0,0,1,.4,6.112l.225-.128.279-.146c.254-.127.561-.267.91-.407A8.6,8.6,0,0,1,4.976,4.75Z" transform="translate(0 0.225)" fill="#1a98c9"/>
  <path id="Vector-3" data-name="Vector" d="M4.976,0A7.541,7.541,0,0,1,8.206.749L8.68.956l.518.237.762.356.439.2.2.089.381.158a5.714,5.714,0,0,0,2.284.495,7.025,7.025,0,0,0,2.543-.563c.315-.126.607-.261.868-.4l.223-.119.086-.049a.829.829,0,1,1,.853,1.422l-.225.128-.279.146c-.254.127-.561.267-.91.407a8.6,8.6,0,0,1-3.158.681A7.541,7.541,0,0,1,10.037,3.4L9.563,3.19l-.518-.237L8.283,2.6l-.439-.2-.2-.089-.381-.158a5.714,5.714,0,0,0-2.284-.495,7.025,7.025,0,0,0-2.543.563c-.315.126-.607.261-.868.4l-.223.119-.086.049A.829.829,0,0,1,.4,1.362l.225-.128.279-.146c.254-.127.561-.267.91-.407A8.6,8.6,0,0,1,4.976,0Z" transform="translate(0)" fill="#1a98c9"/>
</svg>
