<svg id="sport" xmlns="http://www.w3.org/2000/svg" width="18.242" height="17.828" viewBox="0 0 18.242 17.828">
  <path id="Vector_Stroke_" data-name="Vector (Stroke)" d="M11.193,2.9a2.9,2.9,0,1,1,2.9,2.9A2.9,2.9,0,0,1,11.193,2.9Zm2.9-1.244A1.244,1.244,0,1,0,15.339,2.9,1.244,1.244,0,0,0,14.1,1.658Zm-6.9,2.118a.829.829,0,0,1,.629.035l4.56,2.176A.829.829,0,0,1,12.518,7.4L8.907,10.093l3.571,2.351a.829.829,0,0,1,.207,1.19L9.787,17.5a.829.829,0,0,1-1.326-1l2.369-3.157L7.007,10.828a.829.829,0,0,1-.04-1.357l3.458-2.578L7.413,5.455l-3,1.038a.829.829,0,1,1-.543-1.567ZM18.017,5.43A.829.829,0,0,1,17.98,6.6L15.493,8.939a.829.829,0,0,1-.964.124l-1.112-.6A.829.829,0,0,1,14.21,7l.585.318,2.05-1.926a.829.829,0,0,1,1.172.037ZM6.657,11.175a.829.829,0,0,1,.159,1.162L5.584,13.959a.829.829,0,0,1-.255.222l-4.095,2.3a.829.829,0,1,1-.811-1.446l3.944-2.212,1.127-1.484a.829.829,0,0,1,1.162-.159Z" transform="translate(0)" fill="#1a98c9" fill-rule="evenodd"/>
</svg>
