<svg id="tennis" xmlns="http://www.w3.org/2000/svg" width="18.243" height="18.243" viewBox="0 0 18.243 18.243">
  <path id="Vector" d="M18.243,9.122A9.122,9.122,0,1,1,9.122,0,9.122,9.122,0,0,1,18.243,9.122ZM9.968,16.537a7.466,7.466,0,0,0,6.573-6.605,7.121,7.121,0,0,0-4.763,1.942,6.564,6.564,0,0,0-1.811,4.663Zm-1.66,0a8.238,8.238,0,0,1,2.336-5.875,8.784,8.784,0,0,1,5.894-2.392A7.466,7.466,0,0,0,9.917,1.7,9.185,9.185,0,0,1,7.686,7.622,8.55,8.55,0,0,1,1.7,9.932a7.466,7.466,0,0,0,6.605,6.608Zm-6.6-8.269A6.875,6.875,0,0,0,6.484,6.479a7.483,7.483,0,0,0,1.77-4.77A7.466,7.466,0,0,0,1.706,8.271Z" transform="translate(0)" fill="#1a98c9" fill-rule="evenodd"/>
</svg>
