<svg id="viencharts" xmlns="http://www.w3.org/2000/svg" width="18.243" height="17.414" viewBox="0 0 18.243 17.414">
  <path id="Vector_Stroke_" data-name="Vector (Stroke)" d="M9.122,1.658A4.146,4.146,0,0,0,4.975,5.8q0,.029,0,.059A5.854,5.854,0,0,1,5.8,5.8,5.778,5.778,0,0,1,9.122,6.845,5.778,5.778,0,0,1,12.439,5.8a5.855,5.855,0,0,1,.829.059q0-.029,0-.059A4.146,4.146,0,0,0,9.122,1.658Zm9.122,9.951a5.805,5.805,0,0,1-9.122,4.764A5.806,5.806,0,1,1,3.342,6.351q-.025-.27-.025-.547a5.8,5.8,0,1,1,11.609,0q0,.277-.025.547a5.805,5.805,0,0,1,3.342,5.258ZM12.911,7.49a4.19,4.19,0,0,0-.472-.027,4.127,4.127,0,0,0-2.073.555,5.8,5.8,0,0,1,.811,1.388A4.163,4.163,0,0,0,12.911,7.49Zm-1.3,4.119A5.78,5.78,0,0,1,10.365,15.2a4.147,4.147,0,1,0,4.128-7.193,5.826,5.826,0,0,1-2.91,3.055q.025.27.025.547ZM9.594,9.924a4.143,4.143,0,0,0-.472-.8,4.142,4.142,0,0,0-.472.8,4.206,4.206,0,0,0,.945,0Zm-1.3,1.685A4.128,4.128,0,0,0,9.122,14.1a4.128,4.128,0,0,0,.829-2.488q0-.029,0-.059a5.878,5.878,0,0,1-1.658,0q0,.029,0,.059Zm-1.226-2.2a5.8,5.8,0,0,1,.812-1.389A4.127,4.127,0,0,0,5.8,7.463a4.191,4.191,0,0,0-.472.027A4.163,4.163,0,0,0,7.067,9.407Zm-5.408,2.2A4.147,4.147,0,0,0,7.878,15.2,5.78,5.78,0,0,1,6.634,11.61q0-.277.025-.547A5.826,5.826,0,0,1,3.75,8.007a4.145,4.145,0,0,0-2.091,3.6Z" transform="translate(0 0)" fill="#1a98c9" fill-rule="evenodd"/>
</svg>
