<svg id="voice" xmlns="http://www.w3.org/2000/svg" width="14.097" height="18.243" viewBox="0 0 14.097 18.243">
  <path id="Vector_Stroke_" data-name="Vector (Stroke)" d="M3.317,3.732a3.732,3.732,0,1,1,7.463,0v5.39a3.732,3.732,0,0,1-7.463,0ZM7.049,1.658A2.073,2.073,0,0,0,4.975,3.732v5.39a2.073,2.073,0,0,0,4.146,0V3.732A2.073,2.073,0,0,0,7.049,1.658ZM.829,7.878a.829.829,0,0,1,.829.829,5.39,5.39,0,0,0,10.78,0,.829.829,0,0,1,1.658,0,7.05,7.05,0,0,1-6.219,7v1.707a.829.829,0,1,1-1.658,0V15.707A7.05,7.05,0,0,1,0,8.707.829.829,0,0,1,.829,7.878Z" fill="#1a98c9" fill-rule="evenodd"/>
</svg>
