<svg id="weixin-market" xmlns="http://www.w3.org/2000/svg" width="14.926" height="18.243" viewBox="0 0 14.926 18.243">
  <path id="Vector_Stroke_" data-name="Vector (Stroke)" d="M7.463,1.658A2.073,2.073,0,0,0,5.39,3.732v.415H9.536V3.732A2.073,2.073,0,0,0,7.463,1.658Zm5.8,2.488A1.658,1.658,0,0,1,14.926,5.8v10.78a1.658,1.658,0,0,1-1.658,1.658H1.658A1.658,1.658,0,0,1,0,16.585V5.8A1.658,1.658,0,0,1,1.658,4.146H3.732V3.732a3.732,3.732,0,0,1,7.463,0v.415ZM5.39,5.8v.829a.829.829,0,1,1-1.658,0V5.8H1.658v10.78H13.268V5.8H11.195v.829a.829.829,0,1,1-1.658,0V5.8Z" transform="translate(0 0)" fill="#1a98c9" fill-rule="evenodd"/>
</svg>
